<?xml version="1.0" standalone="no"?>
<!DOCTYPE svg PUBLIC "-//W3C//DTD SVG 20010904//EN"
 "http://www.w3.org/TR/2001/REC-SVG-20010904/DTD/svg10.dtd">
<svg version="1.0" xmlns="http://www.w3.org/2000/svg"
 width="500.000000pt" height="500.000000pt" viewBox="0 0 500.000000 500.000000"
 preserveAspectRatio="xMidYMid meet">

<g transform="translate(0.000000,500.000000) scale(0.100000,-0.100000)"
fill="#000000" stroke="none">
<path d="M1820 3245 c0 -37 4 -55 13 -55 8 0 12 18 12 55 0 37 -4 55 -12 55
-9 0 -13 -18 -13 -55z"/>
<path d="M1918 3245 c-2 -39 1 -55 10 -55 6 0 12 11 12 25 0 20 5 25 25 25 20
0 25 -5 25 -25 0 -16 6 -25 15 -25 12 0 15 13 15 55 0 42 -3 55 -15 55 -9 0
-15 -9 -15 -25 0 -20 -5 -25 -25 -25 -20 0 -25 5 -25 25 0 49 -18 24 -22 -30z"/>
<path d="M2068 3245 l-3 -55 38 0 c20 0 37 4 37 9 0 4 -11 6 -25 3 -20 -3 -25
0 -25 16 0 13 8 22 23 25 l22 4 -22 2 c-17 1 -23 7 -23 26 0 49 -18 24 -22
-30z"/>
<path d="M2237 3282 c-10 -10 -17 -25 -17 -33 0 -23 30 -59 48 -59 16 1 16 1
0 11 -21 12 -24 69 -6 87 7 7 8 12 2 12 -6 0 -18 -8 -27 -18z"/>
<path d="M2308 3289 c15 -16 16 -53 1 -80 -9 -18 -8 -19 9 -10 11 6 22 18 26
27 8 20 -14 66 -34 72 -12 4 -13 2 -2 -9z"/>
<path d="M2385 3245 c0 -37 4 -55 13 -55 6 0 12 11 12 24 0 15 7 26 18 29 16
4 16 5 0 6 -12 1 -18 9 -18 26 0 14 -6 25 -12 25 -9 0 -13 -18 -13 -55z"/>
<path d="M2490 3245 c0 -40 4 -55 14 -55 9 0 12 8 9 24 -4 19 0 25 18 29 l24
4 -24 2 c-19 1 -23 5 -19 26 4 17 1 25 -8 25 -10 0 -14 -15 -14 -55z"/>
<path d="M2593 3284 c-4 -12 5 -26 28 -45 29 -24 32 -30 19 -40 -13 -9 -13
-10 0 -6 26 7 24 44 -5 63 -14 9 -24 23 -21 30 3 8 1 14 -5 14 -5 0 -12 -7
-16 -16z"/>
<path d="M2700 3245 c0 -40 4 -55 14 -55 10 0 14 14 13 55 -1 37 -5 55 -14 55
-9 0 -13 -17 -13 -55z"/>
<path d="M2756 3286 c3 -9 0 -23 -7 -32 -12 -14 -11 -16 6 -13 23 5 28 50 7
57 -7 2 -10 -2 -6 -12z"/>
<path d="M2820 3245 c0 -37 4 -55 13 -55 8 0 11 16 9 55 -5 71 -22 71 -22 0z"/>
<path d="M2870 3285 c10 -12 10 -18 0 -30 -10 -12 -9 -20 4 -40 9 -14 24 -25
33 -25 14 0 12 4 -7 25 -19 20 -21 27 -10 40 15 18 6 45 -16 45 -13 0 -14 -3
-4 -15z"/>
<path d="M2950 3245 c0 -37 4 -55 13 -55 8 0 12 18 12 55 0 37 -4 55 -12 55
-9 0 -13 -18 -13 -55z"/>
<path d="M3020 3247 c0 -41 4 -57 14 -57 9 0 12 10 9 35 -2 19 0 35 4 35 4 0
24 -17 45 -37 l37 -36 0 56 c-1 44 -5 57 -16 57 -12 0 -14 -8 -9 -35 4 -19 4
-35 -1 -35 -4 0 -24 17 -45 37 l-38 37 0 -57z"/>
<path d="M3176 3278 c-9 -12 -16 -28 -16 -35 0 -17 36 -53 53 -53 6 0 4 5 -5
11 -21 12 -24 69 -6 87 9 9 9 12 1 12 -7 0 -19 -10 -27 -22z"/>
<path d="M3255 3290 c3 -5 8 -10 11 -10 2 0 4 5 4 10 0 6 -5 10 -11 10 -5 0
-7 -4 -4 -10z"/>
<path d="M3250 3220 c0 -11 -5 -20 -12 -20 -6 0 -9 -3 -5 -6 9 -9 40 12 43 30
1 9 -4 16 -12 16 -8 0 -14 -9 -14 -20z"/>
<path d="M2590 3200 c0 -5 5 -10 11 -10 5 0 7 5 4 10 -3 6 -8 10 -11 10 -2 0
-4 -4 -4 -10z"/>
<path d="M1958 3019 c-29 -17 -22 -55 15 -80 48 -33 58 -48 46 -70 -11 -22
-58 -25 -79 -6 -12 10 -12 9 -1 -5 25 -34 107 -17 111 22 5 37 -3 51 -45 80
-51 35 -53 65 -4 58 16 -3 29 -1 29 4 0 11 -51 10 -72 -3z"/>
<path d="M2135 3018 c-52 -28 -62 -92 -20 -133 38 -39 135 -30 135 13 0 13 -3
12 -16 -6 -18 -26 -65 -30 -88 -6 -23 22 -21 96 2 117 22 20 63 22 80 5 8 -8
12 -8 12 -1 0 23 -69 31 -105 11z"/>
<path d="M2301 2945 c-1 -79 0 -85 19 -85 17 0 20 6 20 40 l0 40 41 0 41 0 -4
-40 c-3 -35 -1 -40 17 -40 18 0 20 6 20 85 0 79 -2 85 -20 85 -18 0 -20 -5
-17 -40 l4 -40 -41 0 -41 0 0 40 c0 32 -4 40 -19 40 -17 0 -19 -9 -20 -85z"/>
<path d="M2529 3001 c-61 -62 -18 -141 77 -141 86 0 118 117 43 155 -45 24
-87 19 -120 -14z m98 11 c31 -20 37 -96 10 -129 -16 -21 -64 -15 -81 9 -45 63
12 158 71 120z"/>
<path d="M2775 3020 c-33 -13 -47 -37 -47 -77 0 -112 182 -111 185 1 2 66 -68
105 -138 76z m84 -14 c7 -8 15 -30 18 -50 8 -48 -17 -86 -56 -86 -38 0 -56 24
-56 75 0 23 6 49 14 58 17 21 64 22 80 3z"/>
<path d="M2965 2945 l0 -85 51 0 c40 0 53 4 59 18 5 14 4 15 -6 5 -7 -7 -26
-13 -41 -13 l-28 0 0 80 c0 70 -2 80 -17 80 -16 0 -18 -11 -18 -85z"/>
<path d="M1921 2894 c0 -11 3 -14 6 -6 3 7 2 16 -1 19 -3 4 -6 -2 -5 -13z"/>
<path d="M2243 2521 c4 -16 1 -21 -14 -21 -17 0 -19 -5 -15 -32 3 -18 8 -73
11 -123 3 -49 9 -104 11 -121 l6 -32 76 -4 c52 -3 91 -12 119 -26 53 -27 72
-27 124 0 29 15 66 23 119 26 l78 4 6 42 c3 22 8 73 11 111 3 39 8 89 11 113
5 37 3 42 -14 42 -16 0 -19 5 -15 21 6 21 4 22 -45 15 -72 -9 -131 -32 -174
-67 l-38 -30 -37 30 c-44 35 -103 58 -175 67 -49 7 -51 6 -45 -15z m114 -16
c27 -8 68 -28 91 -45 l42 -30 0 -130 0 -130 -40 26 c-22 15 -68 37 -102 49
l-63 23 -7 68 c-3 38 -9 95 -13 127 -6 55 -5 57 18 57 13 0 46 -7 74 -15z
m380 -22 c-4 -21 -9 -79 -13 -129 l-7 -91 -48 -12 c-26 -7 -73 -28 -103 -46
l-56 -34 0 129 0 129 36 27 c40 31 125 63 168 64 27 0 28 -1 23 -37z m-483
-70 c4 -38 9 -89 12 -115 l6 -47 56 -16 c31 -9 65 -24 77 -32 20 -15 20 -15
-4 -8 -13 4 -51 9 -85 11 l-61 3 -6 58 c-16 147 -19 213 -11 213 6 0 13 -30
16 -67z m511 -10 c-4 -43 -10 -104 -14 -136 l-6 -58 -61 -3 c-34 -2 -72 -7
-85 -10 l-24 -7 25 15 c14 9 48 23 77 31 57 18 53 5 69 178 3 37 11 67 16 67
6 0 7 -29 3 -77z"/>
<path d="M2164 2438 c3 -13 13 -83 22 -155 13 -104 20 -133 33 -137 9 -2 75
-14 146 -27 l130 -22 143 24 c78 13 147 26 152 29 5 3 16 62 24 130 9 69 18
137 21 153 4 22 1 27 -15 27 -12 0 -20 -7 -21 -17 0 -10 -6 -74 -12 -143 l-12
-124 -75 -2 c-53 -1 -90 -8 -124 -23 -61 -27 -91 -27 -152 1 -35 15 -70 21
-122 22 -84 1 -77 -8 -87 121 -11 144 -15 165 -36 165 -15 0 -18 -5 -15 -22z"/>
<path d="M2391 1494 c0 -11 3 -14 6 -6 3 7 2 16 -1 19 -3 4 -6 -2 -5 -13z"/>
<path d="M2470 1505 c0 -5 5 -17 10 -25 5 -8 10 -10 10 -5 0 6 -5 17 -10 25
-5 8 -10 11 -10 5z"/>
<path d="M2551 1494 c0 -11 3 -14 6 -6 3 7 2 16 -1 19 -3 4 -6 -2 -5 -13z"/>
<path d="M2630 1496 c0 -8 -6 -17 -12 -19 -10 -4 -10 -6 0 -6 18 -1 14 -29 -5
-35 -14 -4 -14 -4 2 -3 16 2 20 10 22 40 1 20 0 37 -2 37 -3 0 -5 -6 -5 -14z"/>
<path d="M2440 1453 c0 -19 21 -27 33 -13 9 10 9 11 -2 5 -8 -4 -17 -2 -22 6
-6 9 -9 10 -9 2z"/>
<path d="M2354 1439 c-3 -5 6 -9 20 -9 31 0 34 6 6 13 -11 3 -23 1 -26 -4z"/>
<path d="M2523 1433 c9 -2 23 -2 30 0 6 3 -1 5 -18 5 -16 0 -22 -2 -12 -5z"/>
</g>
</svg>
